# xmcd
#
# Track frame offsets:
#	150
#	11437
#	21287
#	34407
#	49212
#	61360
#	76417
#	89437
#	101440
#	114250
#	125910
#	136822
#	148087
#	160992
#	173327
#	182900
#	196425
#	209990
#	221515
#	234467
#
# Disc length: 3299 seconds
#
# Revision: 1
# Processed by: cddbd v1.5PL3 Copyright (c) Steve Scherf et al.
# Submitted via: CDex 1.50Beta5
#
DISCID=230ce114
DTITLE=Various Artist - GSスーパー・ヒッツ・コレクション1
DYEAR=2000
DGENRE=Pop
TTITLE0=スパイダース/あの時君は若かった
TTITLE1=テンプターズ/神様お願い
TTITLE2=ジャガーズ/マドモアゼル・ブルース
TTITLE3=カーナビーツ/好きさ 好きさ 好きさ*I LOVE YOU
TTITLE4=スパイダース/風が泣いている
TTITLE5=サベージ/この手のひらに愛を
TTITLE6=テンプターズ/雨よふらないで
TTITLE7=スパイダース/黒ゆりの詩
TTITLE8=ジャガーズ/星空の二人
TTITLE9=カーナビーツ/オーケイ!*OKAY
TTITLE10=スパイダース/なんとなくなんとなく
TTITLE11=スイング・ウエスト/雨のバラード
TTITLE12=テンプターズ/忘れ得ぬ君
TTITLE13=サベージ/哀愁の湖
TTITLE14=スパイダース/サマー・ガール
TTITLE15=ジャガーズ/ダンシング・ロンリー・ナイト
TTITLE16=カーナビーツ/泣かずにいてね
TTITLE17=テンプターズ/涙のあとに微笑みを
TTITLE18=パープル・シャドウズ/小さなスナック
TTITLE19=スパイダース/エレクトリックおばあちゃん
EXTD=
EXTT0=
EXTT1=
EXTT2=
EXTT3=
EXTT4=
EXTT5=
EXTT6=
EXTT7=
EXTT8=
EXTT9=
EXTT10=
EXTT11=
EXTT12=
EXTT13=
EXTT14=
EXTT15=
EXTT16=
EXTT17=
EXTT18=
EXTT19=
PLAYORDER=
